<?xml version="1.0" encoding="iso-8859-1"?>

<svg version="1.1" id="Layer_1" xmlns="http://www.w3.org/2000/svg" xmlns:xlink="http://www.w3.org/1999/xlink" x="0px" y="0px"
	 viewBox="0 0 512.001 512.001" style="enable-background:new 0 0 512.001 512.001;" xml:space="preserve">
<path style="fill:#FF4B00;" d="M433.867,178.366L333.635,78.133l-301.79,301.79L0.323,499.696c-0.888,3.374,0.083,6.965,2.549,9.431
	c2.466,2.466,6.058,3.438,9.431,2.549l119.772-31.522L433.867,178.366z"/>
<path style="fill:#F20013;" d="M433.867,178.366l-50.397-50.398L2.61,508.828c0.09,0.098,0.168,0.205,0.262,0.3
	c2.467,2.466,6.058,3.437,9.431,2.549l119.772-31.522L433.867,178.366z"/>
<rect x="378.717" y="45.253" transform="matrix(-0.7071 0.7071 -0.7071 -0.7071 757.8912 -81.6787)" style="fill:#797882;" width="34.289" height="141.744"/>
<polygon style="fill:#DFDEE1;" points="48.346,502.192 132.077,480.156 31.845,379.924 9.808,463.656 "/>
<path style="fill:#FFDC35;" d="M491.242,120.991c27.679-27.679,27.679-72.554,0-100.232c-27.679-27.679-72.554-27.679-100.232,0
	l-33.127,33.127l100.232,100.232L491.242,120.991z"/>
<rect x="403.712" y="105.585" transform="matrix(0.7071 -0.7071 0.7071 0.7071 23.4793 338.9238)" style="fill:#57565C;" width="34.289" height="71.069"/>
<path style="fill:#FF9900;" d="M458.115,154.12l33.127-33.128c27.679-27.679,27.679-72.554,0-100.232
	c-0.045-0.045-0.093-0.087-0.138-0.132l-83.241,83.241L458.115,154.12z"/>
<polygon style="fill:#CECED1;" points="48.346,502.192 132.077,480.156 81.571,429.65 28.687,482.534 "/>
</svg>
