<svg width="5000" height="5000" xmlns="http://www.w3.org/2000/svg" xmlns:xlink="http://www.w3.org/1999/xlink" overflow="hidden"><defs><filter id="fx0" x="-10%" y="-10%" width="120%" height="120%" filterUnits="userSpaceOnUse" primitiveUnits="userSpaceOnUse"><feComponentTransfer color-interpolation-filters="sRGB"><feFuncR type="discrete" tableValues="0 0"/><feFuncG type="discrete" tableValues="0 0"/><feFuncB type="discrete" tableValues="0 0"/><feFuncA type="linear" slope="0.4" intercept="0"/></feComponentTransfer><feGaussianBlur stdDeviation="1.77778 1.77778"/></filter><filter id="fx1" x="-10%" y="-10%" width="120%" height="120%" filterUnits="userSpaceOnUse" primitiveUnits="userSpaceOnUse"><feComponentTransfer color-interpolation-filters="sRGB"><feFuncR type="discrete" tableValues="0 0"/><feFuncG type="discrete" tableValues="0 0"/><feFuncB type="discrete" tableValues="0 0"/><feFuncA type="linear" slope="0.4" intercept="0"/></feComponentTransfer><feGaussianBlur stdDeviation="1.77778 1.77778"/></filter><clipPath id="clip2"><rect x="0" y="0" width="5000" height="5000"/></clipPath><clipPath id="clip3"><path d="M2276.5 854.5C1222.19 854.5 367.5 1709.41 367.5 2764 367.5 3818.59 1222.19 4673.5 2276.5 4673.5 3330.81 4673.5 4185.5 3818.59 4185.5 2764 4185.5 1709.41 3330.81 854.5 2276.5 854.5ZM7.45058e-05 7.45058e-05 5000 7.45058e-05 5000 5000 7.45058e-05 5000Z" fill-rule="evenodd" clip-rule="evenodd"/></clipPath><clipPath id="clip4"><rect x="-2" y="-2" width="3876" height="3876"/></clipPath><clipPath id="clip5"><rect x="0" y="0" width="3871" height="3872"/></clipPath><clipPath id="clip6"><rect x="405" y="-2" width="2519" height="2664"/></clipPath><clipPath id="clip7"><rect x="0" y="0" width="2924" height="3068"/></clipPath></defs><g clip-path="url(#clip2)"><rect x="0" y="0" width="5000" height="5000" fill="#FFFFFF"/><g clip-path="url(#clip3)"><g clip-path="url(#clip4)" filter="url(#fx0)" transform="translate(363 850)"><g clip-path="url(#clip5)"><path d="M7.33514 1935.93C7.33514 870.797 870.57 7.33514 1935.43 7.33514 3000.28 7.33514 3863.52 870.797 3863.52 1935.93 3863.52 3001.06 3000.28 3864.53 1935.43 3864.53 870.57 3864.53 7.33514 3001.06 7.33514 1935.93Z" stroke="#000000" stroke-miterlimit="8" fill="#0D0D0D" fill-rule="evenodd"/></g></g></g><path d="M367.5 2764C367.5 1709.41 1222.19 854.5 2276.5 854.5 3330.81 854.5 4185.5 1709.41 4185.5 2764 4185.5 3818.59 3330.81 4673.5 2276.5 4673.5 1222.19 4673.5 367.5 3818.59 367.5 2764Z" stroke="#000000" stroke-width="1.33333" stroke-miterlimit="8" fill="#0D0D0D" fill-rule="evenodd"/><path d="M544.5 2764.5C544.5 1807.94 1319.94 1032.5 2276.5 1032.5 3233.06 1032.5 4008.5 1807.94 4008.5 2764.5 4008.5 3721.06 3233.06 4496.5 2276.5 4496.5 1319.94 4496.5 544.5 3721.06 544.5 2764.5Z" stroke="#548235" stroke-width="1.33333" stroke-miterlimit="8" fill="#548235" fill-rule="evenodd"/><path d="M971.5 2764C971.5 2042.99 1555.77 1458.5 2276.5 1458.5 2997.23 1458.5 3581.5 2042.99 3581.5 2764 3581.5 3485.01 2997.23 4069.5 2276.5 4069.5 1555.77 4069.5 971.5 3485.01 971.5 2764Z" stroke="#D0CECE" stroke-width="1.33333" stroke-miterlimit="8" fill="#D0CECE" fill-rule="evenodd"/><path d="M1376.5 2764.5C1376.5 2267.44 1779.44 1864.5 2276.5 1864.5 2773.56 1864.5 3176.5 2267.44 3176.5 2764.5 3176.5 3261.56 2773.56 3664.5 2276.5 3664.5 1779.44 3664.5 1376.5 3261.56 1376.5 2764.5Z" stroke="#F03A17" stroke-width="1.33333" stroke-miterlimit="8" fill="#F03A17" fill-rule="evenodd"/><path d="M1792.5 2764.5C1792.5 2497.19 2009.19 2280.5 2276.5 2280.5 2543.81 2280.5 2760.5 2497.19 2760.5 2764.5 2760.5 3031.81 2543.81 3248.5 2276.5 3248.5 2009.19 3248.5 1792.5 3031.81 1792.5 2764.5Z" stroke="#FFF2CC" stroke-width="1.33333" stroke-miterlimit="8" fill="#FFE699" fill-rule="evenodd"/><g clip-path="url(#clip6)" filter="url(#fx1)" transform="translate(1843 210)"><g clip-path="url(#clip7)"><path d="M0 277.872 37.8974 120.397 70.4002 0 922.092 0 844.97 308.488 0 277.872Z" stroke="#000000" stroke-width="23.23" stroke-miterlimit="8" fill="#F03A17" fill-rule="evenodd" transform="matrix(0.709366 -0.70484 -0.70484 -0.709366 2243.99 1189.89)"/><path d="M43.479-51.4136 2260.3 1823.29C2288.7 1847.3 2292.25 1889.79 2268.24 1918.18 2244.22 1946.58 2201.74 1950.13 2173.34 1926.12L-43.479 51.4136C-71.8739 27.4008-75.4264-15.084-51.4136-43.479-27.4008-71.8739 15.084-75.4264 43.479-51.4136ZM2216.82 1874.7 2244.43 1633.5 2422.48 2048.62 1983.56 1941.99Z" fill="#0D0D0D" transform="matrix(-0.993275 0.115779 0.115779 0.993275 2582.34 338.846)"/><path d="M26.0874-30.8482 2268.87 1865.8C2285.9 1880.21 2288.04 1905.7 2273.63 1922.74 2259.22 1939.78 2233.73 1941.91 2216.69 1927.5L-26.0874 30.8482C-43.1243 16.4405-45.2558-9.05041-30.8482-26.0874-16.4405-43.1243 9.05041-45.2558 26.0874-30.8482ZM2242.78 1896.65 2259.35 1751.93 2366.17 2001 2102.82 1937.02Z" fill="#ED7D31" transform="matrix(-0.993275 0.115779 0.115779 0.993275 2582.34 338.846)"/><path d="M1964.09 915.23 1791.3 648.295 2372.66 25.8887 2545.46 292.824Z" stroke="#000000" stroke-width="23.23" stroke-miterlimit="8" fill="#F03A17" fill-rule="evenodd"/></g></g><path d="M0 275.121 37.5222 119.205 69.7032 0 912.962 0 836.604 305.434 0 275.121Z" stroke="#000000" stroke-width="23" stroke-miterlimit="8" fill="#F03A17" fill-rule="evenodd" transform="matrix(0.709366 -0.70484 -0.70484 -0.709366 4062.01 1385.35)"/><path d="M43.0485-50.9045 2237.92 1805.24C2266.04 1829.01 2269.55 1871.07 2245.78 1899.19 2222 1927.3 2179.94 1930.82 2151.83 1907.04L-43.0485 50.9045C-71.1623 27.1295-74.6796-14.9347-50.9045-43.0485-27.1295-71.1623 14.9347-74.6796 43.0485-50.9045ZM2194.88 1856.14 2222.21 1617.33 2398.49 2028.33 1963.92 1922.76Z" fill="#0D0D0D" transform="matrix(-0.993275 0.115779 0.115779 0.993275 4397.01 542.733)"/><path d="M25.8291-30.5427 2246.4 1847.33C2263.27 1861.6 2265.38 1886.83 2251.12 1903.7 2236.85 1920.57 2211.61 1922.68 2194.74 1908.42L-25.8291 30.5427C-42.6974 16.2777-44.8077-8.9608-30.5427-25.8291-16.2777-42.6974 8.9608-44.8077 25.8291-30.5427ZM2220.57 1877.87 2236.98 1734.59 2342.75 1981.19 2082 1917.84Z" fill="#ED7D31" transform="matrix(-0.993275 0.115779 0.115779 0.993275 4397.01 542.733)"/><path d="M3784.88 1113.41 3613.8 849.118 4189.41 232.874 4360.5 497.166Z" stroke="#000000" stroke-width="23" stroke-miterlimit="8" fill="#F03A17" fill-rule="evenodd"/></g></svg>